<svg width="494" height="494" viewBox="0 0 494 494" fill="none" xmlns="http://www.w3.org/2000/svg">
<circle cx="247" cy="247" r="247" fill="black"/>
<path d="M63.22 229.59C63.58 224.01 65.71 219.66 69.61 216.54C73.57 213.42 78.61 211.86 84.73 211.86C88.93 211.86 92.56 212.61 95.62 214.11C98.68 215.61 100.99 217.65 102.55 220.23C104.11 222.81 104.89 225.72 104.89 228.96C104.89 232.68 103.9 235.86 101.92 238.5C99.94 241.14 97.57 242.91 94.81 243.81V244.17C98.35 245.25 101.11 247.23 103.09 250.11C105.07 252.93 106.06 256.56 106.06 261C106.06 264.54 105.25 267.69 103.63 270.45C102.01 273.21 99.61 275.4 96.43 277.02C93.25 278.58 89.44 279.36 85 279.36C78.52 279.36 73.18 277.71 68.98 274.41C64.84 271.05 62.62 266.25 62.32 260.01H72.22C72.46 263.19 73.69 265.8 75.91 267.84C78.13 269.82 81.13 270.81 84.91 270.81C88.57 270.81 91.39 269.82 93.37 267.84C95.35 265.8 96.34 263.19 96.34 260.01C96.34 255.81 94.99 252.84 92.29 251.1C89.65 249.3 85.57 248.4 80.05 248.4H77.71V239.94H80.14C85 239.88 88.69 239.07 91.21 237.51C93.79 235.95 95.08 233.49 95.08 230.13C95.08 227.25 94.15 224.97 92.29 223.29C90.43 221.55 87.79 220.68 84.37 220.68C81.01 220.68 78.4 221.55 76.54 223.29C74.68 224.97 73.57 227.07 73.21 229.59H63.22ZM128.447 212.4V279H118.187V212.4H128.447ZM187.368 252.99C187.368 254.85 187.248 256.53 187.008 258.03H149.118C149.418 261.99 150.888 265.17 153.528 267.57C156.168 269.97 159.408 271.17 163.248 271.17C168.768 271.17 172.668 268.86 174.948 264.24H186.018C184.518 268.8 181.788 272.55 177.828 275.49C173.928 278.37 169.068 279.81 163.248 279.81C158.508 279.81 154.248 278.76 150.468 276.66C146.748 274.5 143.808 271.5 141.648 267.66C139.548 263.76 138.498 259.26 138.498 254.16C138.498 249.06 139.518 244.59 141.558 240.75C143.658 236.85 146.568 233.85 150.288 231.75C154.068 229.65 158.388 228.6 163.248 228.6C167.928 228.6 172.098 229.62 175.758 231.66C179.418 233.7 182.268 236.58 184.308 240.3C186.348 243.96 187.368 248.19 187.368 252.99ZM176.658 249.75C176.598 245.97 175.248 242.94 172.608 240.66C169.968 238.38 166.698 237.24 162.798 237.24C159.258 237.24 156.228 238.38 153.708 240.66C151.188 242.88 149.688 245.91 149.208 249.75H176.658ZM217.445 228.6C221.285 228.6 224.675 229.38 227.615 230.94C230.615 232.44 232.955 234.33 234.635 236.61V229.41H244.985V279.81C244.985 284.37 244.025 288.42 242.105 291.96C240.185 295.56 237.395 298.38 233.735 300.42C230.135 302.46 225.815 303.48 220.775 303.48C214.055 303.48 208.475 301.89 204.035 298.71C199.595 295.59 197.075 291.33 196.475 285.93H206.645C207.425 288.51 209.075 290.58 211.595 292.14C214.175 293.76 217.235 294.57 220.775 294.57C224.915 294.57 228.245 293.31 230.765 290.79C233.345 288.27 234.635 284.61 234.635 279.81V271.53C232.895 273.87 230.525 275.85 227.525 277.47C224.585 279.03 221.225 279.81 217.445 279.81C213.125 279.81 209.165 278.73 205.565 276.57C202.025 274.35 199.205 271.29 197.105 267.39C195.065 263.43 194.045 258.96 194.045 253.98C194.045 249 195.065 244.59 197.105 240.75C199.205 236.91 202.025 233.94 205.565 231.84C209.165 229.68 213.125 228.6 217.445 228.6ZM234.635 254.16C234.635 250.74 233.915 247.77 232.475 245.25C231.095 242.73 229.265 240.81 226.985 239.49C224.705 238.17 222.245 237.51 219.605 237.51C216.965 237.51 214.505 238.17 212.225 239.49C209.945 240.75 208.085 242.64 206.645 245.16C205.265 247.62 204.575 250.56 204.575 253.98C204.575 257.4 205.265 260.4 206.645 262.98C208.085 265.56 209.945 267.54 212.225 268.92C214.565 270.24 217.025 270.9 219.605 270.9C222.245 270.9 224.705 270.24 226.985 268.92C229.265 267.6 231.095 265.68 232.475 263.16C233.915 260.58 234.635 257.58 234.635 254.16ZM303.911 252.99C303.911 254.85 303.791 256.53 303.551 258.03H265.661C265.961 261.99 267.431 265.17 270.071 267.57C272.711 269.97 275.951 271.17 279.791 271.17C285.311 271.17 289.211 268.86 291.491 264.24H302.561C301.061 268.8 298.331 272.55 294.371 275.49C290.471 278.37 285.611 279.81 279.791 279.81C275.051 279.81 270.791 278.76 267.011 276.66C263.291 274.5 260.351 271.5 258.191 267.66C256.091 263.76 255.041 259.26 255.041 254.16C255.041 249.06 256.061 244.59 258.101 240.75C260.201 236.85 263.111 233.85 266.831 231.75C270.611 229.65 274.931 228.6 279.791 228.6C284.471 228.6 288.641 229.62 292.301 231.66C295.961 233.7 298.811 236.58 300.851 240.3C302.891 243.96 303.911 248.19 303.911 252.99ZM293.201 249.75C293.141 245.97 291.791 242.94 289.151 240.66C286.511 238.38 283.241 237.24 279.341 237.24C275.801 237.24 272.771 238.38 270.251 240.66C267.731 242.88 266.231 245.91 265.751 249.75H293.201ZM339.028 228.6C342.928 228.6 346.408 229.41 349.468 231.03C352.588 232.65 355.018 235.05 356.758 238.23C358.498 241.41 359.368 245.25 359.368 249.75V279H349.198V251.28C349.198 246.84 348.088 243.45 345.868 241.11C343.648 238.71 340.618 237.51 336.778 237.51C332.938 237.51 329.878 238.71 327.598 241.11C325.378 243.45 324.268 246.84 324.268 251.28V279H314.008V229.41H324.268V235.08C325.948 233.04 328.078 231.45 330.658 230.31C333.298 229.17 336.088 228.6 339.028 228.6ZM369.035 253.98C369.035 249 370.055 244.59 372.095 240.75C374.195 236.91 377.015 233.94 380.555 231.84C384.155 229.68 388.145 228.6 392.525 228.6C395.765 228.6 398.945 229.32 402.065 230.76C405.245 232.14 407.765 234 409.625 236.34V212.4H419.975V279H409.625V271.53C407.945 273.93 405.605 275.91 402.605 277.47C399.665 279.03 396.275 279.81 392.435 279.81C388.115 279.81 384.155 278.73 380.555 276.57C377.015 274.35 374.195 271.29 372.095 267.39C370.055 263.43 369.035 258.96 369.035 253.98ZM409.625 254.16C409.625 250.74 408.905 247.77 407.465 245.25C406.085 242.73 404.255 240.81 401.975 239.49C399.695 238.17 397.235 237.51 394.595 237.51C391.955 237.51 389.495 238.17 387.215 239.49C384.935 240.75 383.075 242.64 381.635 245.16C380.255 247.62 379.565 250.56 379.565 253.98C379.565 257.4 380.255 260.4 381.635 262.98C383.075 265.56 384.935 267.54 387.215 268.92C389.555 270.24 392.015 270.9 394.595 270.9C397.235 270.9 399.695 270.24 401.975 268.92C404.255 267.6 406.085 265.68 407.465 263.16C408.905 260.58 409.625 257.58 409.625 254.16Z" fill="white"/>
<path d="M437.591 279.63C435.731 279.63 434.171 279 432.911 277.74C431.651 276.48 431.021 274.92 431.021 273.06C431.021 271.2 431.651 269.64 432.911 268.38C434.171 267.12 435.731 266.49 437.591 266.49C439.391 266.49 440.921 267.12 442.181 268.38C443.441 269.64 444.071 271.2 444.071 273.06C444.071 274.92 443.441 276.48 442.181 277.74C440.921 279 439.391 279.63 437.591 279.63Z" fill="#6C7275"/>
</svg>
