<svg width="103" height="25" viewBox="0 0 103 25" fill="none" xmlns="http://www.w3.org/2000/svg">
<path d="M1.22013 4.824C1.31613 3.336 1.88413 2.176 2.92413 1.344C3.98013 0.511999 5.32413 0.0959988 6.95613 0.0959988C8.07613 0.0959988 9.04413 0.295999 9.86013 0.696C10.6761 1.096 11.2921 1.64 11.7081 2.328C12.1241 3.016 12.3321 3.792 12.3321 4.656C12.3321 5.648 12.0681 6.496 11.5401 7.2C11.0121 7.904 10.3801 8.376 9.64413 8.616V8.712C10.5881 9 11.3241 9.528 11.8521 10.296C12.3801 11.048 12.6441 12.016 12.6441 13.2C12.6441 14.144 12.4281 14.984 11.9961 15.72C11.5641 16.456 10.9241 17.04 10.0761 17.472C9.22813 17.888 8.21213 18.096 7.02813 18.096C5.30013 18.096 3.87613 17.656 2.75613 16.776C1.65213 15.88 1.06013 14.6 0.980125 12.936H3.62013C3.68413 13.784 4.01213 14.48 4.60413 15.024C5.19613 15.552 5.99613 15.816 7.00413 15.816C7.98013 15.816 8.73213 15.552 9.26013 15.024C9.78813 14.48 10.0521 13.784 10.0521 12.936C10.0521 11.816 9.69213 11.024 8.97213 10.56C8.26813 10.08 7.18013 9.84 5.70813 9.84H5.08413V7.584H5.73213C7.02813 7.568 8.01213 7.352 8.68413 6.936C9.37213 6.52 9.71613 5.864 9.71613 4.968C9.71613 4.2 9.46813 3.592 8.97213 3.144C8.47613 2.68 7.77213 2.448 6.86013 2.448C5.96413 2.448 5.26813 2.68 4.77213 3.144C4.27613 3.592 3.98013 4.152 3.88413 4.824H1.22013ZM18.6141 0.24V18H15.8781V0.24H18.6141ZM34.3263 11.064C34.3263 11.56 34.2943 12.008 34.2303 12.408H24.1263C24.2063 13.464 24.5983 14.312 25.3023 14.952C26.0063 15.592 26.8703 15.912 27.8943 15.912C29.3663 15.912 30.4063 15.296 31.0143 14.064H33.9662C33.5663 15.28 32.8383 16.28 31.7823 17.064C30.7423 17.832 29.4463 18.216 27.8943 18.216C26.6303 18.216 25.4943 17.936 24.4863 17.376C23.4943 16.8 22.7103 16 22.1343 14.976C21.5743 13.936 21.2943 12.736 21.2943 11.376C21.2943 10.016 21.5663 8.824 22.1103 7.8C22.6703 6.76 23.4463 5.96 24.4383 5.4C25.4463 4.84 26.5983 4.56 27.8943 4.56C29.1423 4.56 30.2543 4.832 31.2303 5.376C32.2063 5.92 32.9663 6.688 33.5103 7.68C34.0543 8.656 34.3263 9.784 34.3263 11.064ZM31.4703 10.2C31.4543 9.192 31.0943 8.384 30.3903 7.776C29.6863 7.168 28.8143 6.864 27.7743 6.864C26.8303 6.864 26.0223 7.168 25.3503 7.776C24.6783 8.368 24.2783 9.176 24.1503 10.2H31.4703ZM42.3468 4.56C43.3708 4.56 44.2748 4.768 45.0588 5.184C45.8588 5.584 46.4828 6.088 46.9308 6.696V4.776H49.6908V18.216C49.6908 19.432 49.4348 20.512 48.9228 21.456C48.4108 22.416 47.6668 23.168 46.6908 23.712C45.7308 24.256 44.5788 24.528 43.2348 24.528C41.4428 24.528 39.9548 24.104 38.7708 23.256C37.5868 22.424 36.9148 21.288 36.7548 19.848H39.4668C39.6748 20.536 40.1148 21.088 40.7868 21.504C41.4748 21.936 42.2908 22.152 43.2348 22.152C44.3388 22.152 45.2268 21.816 45.8988 21.144C46.5868 20.472 46.9308 19.496 46.9308 18.216V16.008C46.4668 16.632 45.8348 17.16 45.0348 17.592C44.2508 18.008 43.3548 18.216 42.3468 18.216C41.1948 18.216 40.1388 17.928 39.1788 17.352C38.2348 16.76 37.4828 15.944 36.9228 14.904C36.3788 13.848 36.1068 12.656 36.1068 11.328C36.1068 10 36.3788 8.824 36.9228 7.8C37.4828 6.776 38.2348 5.984 39.1788 5.424C40.1388 4.848 41.1948 4.56 42.3468 4.56ZM46.9308 11.376C46.9308 10.464 46.7388 9.672 46.3548 9C45.9868 8.328 45.4988 7.816 44.8908 7.464C44.2828 7.112 43.6268 6.936 42.9228 6.936C42.2188 6.936 41.5628 7.112 40.9548 7.464C40.3468 7.8 39.8508 8.304 39.4668 8.976C39.0988 9.632 38.9148 10.416 38.9148 11.328C38.9148 12.24 39.0988 13.04 39.4668 13.728C39.8508 14.416 40.3468 14.944 40.9548 15.312C41.5788 15.664 42.2348 15.84 42.9228 15.84C43.6268 15.84 44.2828 15.664 44.8908 15.312C45.4988 14.96 45.9868 14.448 46.3548 13.776C46.7388 13.088 46.9308 12.288 46.9308 11.376ZM65.4044 11.064C65.4044 11.56 65.3724 12.008 65.3084 12.408H55.2044C55.2844 13.464 55.6764 14.312 56.3804 14.952C57.0844 15.592 57.9484 15.912 58.9724 15.912C60.4444 15.912 61.4844 15.296 62.0924 14.064H65.0444C64.6444 15.28 63.9164 16.28 62.8604 17.064C61.8204 17.832 60.5244 18.216 58.9724 18.216C57.7084 18.216 56.5724 17.936 55.5644 17.376C54.5724 16.8 53.7884 16 53.2124 14.976C52.6524 13.936 52.3724 12.736 52.3724 11.376C52.3724 10.016 52.6444 8.824 53.1884 7.8C53.7484 6.76 54.5244 5.96 55.5164 5.4C56.5244 4.84 57.6764 4.56 58.9724 4.56C60.2204 4.56 61.3324 4.832 62.3084 5.376C63.2844 5.92 64.0444 6.688 64.5884 7.68C65.1324 8.656 65.4044 9.784 65.4044 11.064ZM62.5484 10.2C62.5324 9.192 62.1724 8.384 61.4684 7.776C60.7644 7.168 59.8924 6.864 58.8524 6.864C57.9084 6.864 57.1004 7.168 56.4284 7.776C55.7564 8.368 55.3564 9.176 55.2284 10.2H62.5484ZM74.7689 4.56C75.8089 4.56 76.7369 4.776 77.5529 5.208C78.3849 5.64 79.0329 6.28 79.4969 7.128C79.9609 7.976 80.1929 9 80.1929 10.2V18H77.4809V10.608C77.4809 9.424 77.1849 8.52 76.5929 7.896C76.0009 7.256 75.1929 6.936 74.1689 6.936C73.1449 6.936 72.3289 7.256 71.7209 7.896C71.1289 8.52 70.8329 9.424 70.8329 10.608V18H68.0969V4.776H70.8329V6.288C71.2809 5.744 71.8489 5.32 72.5369 5.016C73.2409 4.712 73.9849 4.56 74.7689 4.56ZM82.7708 11.328C82.7708 10 83.0428 8.824 83.5868 7.8C84.1468 6.776 84.8988 5.984 85.8428 5.424C86.8028 4.848 87.8668 4.56 89.0348 4.56C89.8988 4.56 90.7468 4.752 91.5788 5.136C92.4268 5.504 93.0988 6 93.5948 6.624V0.24H96.3548V18H93.5948V16.008C93.1468 16.648 92.5228 17.176 91.7228 17.592C90.9388 18.008 90.0348 18.216 89.0108 18.216C87.8588 18.216 86.8028 17.928 85.8428 17.352C84.8988 16.76 84.1468 15.944 83.5868 14.904C83.0428 13.848 82.7708 12.656 82.7708 11.328ZM93.5948 11.376C93.5948 10.464 93.4028 9.672 93.0188 9C92.6508 8.328 92.1628 7.816 91.5548 7.464C90.9468 7.112 90.2908 6.936 89.5868 6.936C88.8828 6.936 88.2268 7.112 87.6188 7.464C87.0108 7.8 86.5148 8.304 86.1308 8.976C85.7628 9.632 85.5788 10.416 85.5788 11.328C85.5788 12.24 85.7628 13.04 86.1308 13.728C86.5148 14.416 87.0108 14.944 87.6188 15.312C88.2428 15.664 88.8988 15.84 89.5868 15.84C90.2908 15.84 90.9468 15.664 91.5548 15.312C92.1628 14.96 92.6508 14.448 93.0188 13.776C93.4028 13.088 93.5948 12.288 93.5948 11.376Z" fill="white"/>
<path d="M101.052 18.168C100.556 18.168 100.14 18 99.8044 17.664C99.4684 17.328 99.3004 16.912 99.3004 16.416C99.3004 15.92 99.4684 15.504 99.8044 15.168C100.14 14.832 100.556 14.664 101.052 14.664C101.532 14.664 101.94 14.832 102.276 15.168C102.612 15.504 102.78 15.92 102.78 16.416C102.78 16.912 102.612 17.328 102.276 17.664C101.94 18 101.532 18.168 101.052 18.168Z" fill="#6C7275"/>
</svg>
