<svg width="70" height="24" viewBox="0 0 70 24" fill="none" xmlns="http://www.w3.org/2000/svg">
<path d="M0.928 9.216C0.992 8.224 1.37067 7.45067 2.064 6.896C2.768 6.34133 3.664 6.064 4.752 6.064C5.49867 6.064 6.144 6.19733 6.688 6.464C7.232 6.73067 7.64267 7.09333 7.92 7.552C8.19733 8.01067 8.336 8.528 8.336 9.104C8.336 9.76533 8.16 10.3307 7.808 10.8C7.456 11.2693 7.03467 11.584 6.544 11.744V11.808C7.17333 12 7.664 12.352 8.016 12.864C8.368 13.3653 8.544 14.0107 8.544 14.8C8.544 15.4293 8.4 15.9893 8.112 16.48C7.824 16.9707 7.39733 17.36 6.832 17.648C6.26667 17.9253 5.58933 18.064 4.8 18.064C3.648 18.064 2.69867 17.7707 1.952 17.184C1.216 16.5867 0.821333 15.7333 0.768 14.624H2.528C2.57067 15.1893 2.78933 15.6533 3.184 16.016C3.57867 16.368 4.112 16.544 4.784 16.544C5.43467 16.544 5.936 16.368 6.288 16.016C6.64 15.6533 6.816 15.1893 6.816 14.624C6.816 13.8773 6.576 13.3493 6.096 13.04C5.62667 12.72 4.90133 12.56 3.92 12.56H3.504V11.056H3.936C4.8 11.0453 5.456 10.9013 5.904 10.624C6.36267 10.3467 6.592 9.90933 6.592 9.312C6.592 8.8 6.42667 8.39467 6.096 8.096C5.76533 7.78667 5.296 7.632 4.688 7.632C4.09067 7.632 3.62667 7.78667 3.296 8.096C2.96533 8.39467 2.768 8.768 2.704 9.216H0.928ZM12.524 6.16V18H10.7V6.16H12.524ZM22.9988 13.376C22.9988 13.7067 22.9774 14.0053 22.9348 14.272H16.1988C16.2521 14.976 16.5134 15.5413 16.9828 15.968C17.4521 16.3947 18.0281 16.608 18.7108 16.608C19.6921 16.608 20.3854 16.1973 20.7908 15.376H22.7587C22.4921 16.1867 22.0068 16.8533 21.3028 17.376C20.6094 17.888 19.7454 18.144 18.7108 18.144C17.8681 18.144 17.1108 17.9573 16.4388 17.584C15.7774 17.2 15.2548 16.6667 14.8708 15.984C14.4974 15.2907 14.3108 14.4907 14.3108 13.584C14.3108 12.6773 14.4921 11.8827 14.8548 11.2C15.2281 10.5067 15.7454 9.97333 16.4068 9.6C17.0788 9.22667 17.8468 9.04 18.7108 9.04C19.5428 9.04 20.2841 9.22133 20.9348 9.584C21.5854 9.94667 22.0921 10.4587 22.4548 11.12C22.8174 11.7707 22.9988 12.5227 22.9988 13.376ZM21.0948 12.8C21.0841 12.128 20.8441 11.5893 20.3748 11.184C19.9054 10.7787 19.3241 10.576 18.6308 10.576C18.0014 10.576 17.4628 10.7787 17.0148 11.184C16.5668 11.5787 16.3001 12.1173 16.2148 12.8H21.0948ZM28.3458 9.04C29.0284 9.04 29.6311 9.17867 30.1538 9.456C30.6871 9.72267 31.1031 10.0587 31.4018 10.464V9.184H33.2418V18.144C33.2418 18.9547 33.0711 19.6747 32.7298 20.304C32.3884 20.944 31.8924 21.4453 31.2418 21.808C30.6018 22.1707 29.8338 22.352 28.9378 22.352C27.7431 22.352 26.7511 22.0693 25.9618 21.504C25.1724 20.9493 24.7244 20.192 24.6178 19.232H26.4258C26.5644 19.6907 26.8578 20.0587 27.3058 20.336C27.7644 20.624 28.3084 20.768 28.9378 20.768C29.6738 20.768 30.2658 20.544 30.7138 20.096C31.1724 19.648 31.4018 18.9973 31.4018 18.144V16.672C31.0924 17.088 30.6711 17.44 30.1378 17.728C29.6151 18.0053 29.0178 18.144 28.3458 18.144C27.5778 18.144 26.8738 17.952 26.2338 17.568C25.6044 17.1733 25.1031 16.6293 24.7298 15.936C24.3671 15.232 24.1858 14.4373 24.1858 13.552C24.1858 12.6667 24.3671 11.8827 24.7298 11.2C25.1031 10.5173 25.6044 9.98933 26.2338 9.616C26.8738 9.232 27.5778 9.04 28.3458 9.04ZM31.4018 13.584C31.4018 12.976 31.2738 12.448 31.0178 12C30.7724 11.552 30.4471 11.2107 30.0418 10.976C29.6364 10.7413 29.1991 10.624 28.7298 10.624C28.2604 10.624 27.8231 10.7413 27.4178 10.976C27.0124 11.2 26.6818 11.536 26.4258 11.984C26.1804 12.4213 26.0578 12.944 26.0578 13.552C26.0578 14.16 26.1804 14.6933 26.4258 15.152C26.6818 15.6107 27.0124 15.9627 27.4178 16.208C27.8338 16.4427 28.2711 16.56 28.7298 16.56C29.1991 16.56 29.6364 16.4427 30.0418 16.208C30.4471 15.9733 30.7724 15.632 31.0178 15.184C31.2738 14.7253 31.4018 14.192 31.4018 13.584ZM43.7175 13.376C43.7175 13.7067 43.6962 14.0053 43.6535 14.272H36.9175C36.9708 14.976 37.2322 15.5413 37.7015 15.968C38.1708 16.3947 38.7468 16.608 39.4295 16.608C40.4108 16.608 41.1042 16.1973 41.5095 15.376H43.4775C43.2108 16.1867 42.7255 16.8533 42.0215 17.376C41.3282 17.888 40.4642 18.144 39.4295 18.144C38.5868 18.144 37.8295 17.9573 37.1575 17.584C36.4962 17.2 35.9735 16.6667 35.5895 15.984C35.2162 15.2907 35.0295 14.4907 35.0295 13.584C35.0295 12.6773 35.2108 11.8827 35.5735 11.2C35.9468 10.5067 36.4642 9.97333 37.1255 9.6C37.7975 9.22667 38.5655 9.04 39.4295 9.04C40.2615 9.04 41.0028 9.22133 41.6535 9.584C42.3042 9.94667 42.8108 10.4587 43.1735 11.12C43.5362 11.7707 43.7175 12.5227 43.7175 13.376ZM41.8135 12.8C41.8028 12.128 41.5628 11.5893 41.0935 11.184C40.6242 10.7787 40.0428 10.576 39.3495 10.576C38.7202 10.576 38.1815 10.7787 37.7335 11.184C37.2855 11.5787 37.0188 12.1173 36.9335 12.8H41.8135ZM49.9605 9.04C50.6538 9.04 51.2725 9.184 51.8165 9.472C52.3712 9.76 52.8032 10.1867 53.1125 10.752C53.4218 11.3173 53.5765 12 53.5765 12.8V18H51.7685V13.072C51.7685 12.2827 51.5712 11.68 51.1765 11.264C50.7818 10.8373 50.2432 10.624 49.5605 10.624C48.8778 10.624 48.3338 10.8373 47.9285 11.264C47.5338 11.68 47.3365 12.2827 47.3365 13.072V18H45.5125V9.184H47.3365V10.192C47.6352 9.82933 48.0138 9.54667 48.4725 9.344C48.9418 9.14133 49.4378 9.04 49.9605 9.04ZM55.2951 13.552C55.2951 12.6667 55.4765 11.8827 55.8391 11.2C56.2125 10.5173 56.7138 9.98933 57.3431 9.616C57.9831 9.232 58.6925 9.04 59.4711 9.04C60.0471 9.04 60.6125 9.168 61.1671 9.424C61.7325 9.66933 62.1805 10 62.5111 10.416V6.16H64.3511V18H62.5111V16.672C62.2125 17.0987 61.7965 17.4507 61.2631 17.728C60.7405 18.0053 60.1378 18.144 59.4551 18.144C58.6871 18.144 57.9831 17.952 57.3431 17.568C56.7138 17.1733 56.2125 16.6293 55.8391 15.936C55.4765 15.232 55.2951 14.4373 55.2951 13.552ZM62.5111 13.584C62.5111 12.976 62.3831 12.448 62.1271 12C61.8818 11.552 61.5565 11.2107 61.1511 10.976C60.7458 10.7413 60.3085 10.624 59.8391 10.624C59.3698 10.624 58.9325 10.7413 58.5271 10.976C58.1218 11.2 57.7911 11.536 57.5351 11.984C57.2898 12.4213 57.1671 12.944 57.1671 13.552C57.1671 14.16 57.2898 14.6933 57.5351 15.152C57.7911 15.6107 58.1218 15.9627 58.5271 16.208C58.9431 16.4427 59.3805 16.56 59.8391 16.56C60.3085 16.56 60.7458 16.4427 61.1511 16.208C61.5565 15.9733 61.8818 15.632 62.1271 15.184C62.3831 14.7253 62.5111 14.192 62.5111 13.584Z" fill="white"/>
<path d="M67.4829 18.112C67.1522 18.112 66.8749 18 66.6509 17.776C66.4269 17.552 66.3149 17.2747 66.3149 16.944C66.3149 16.6133 66.4269 16.336 66.6509 16.112C66.8749 15.888 67.1522 15.776 67.4829 15.776C67.8029 15.776 68.0749 15.888 68.2989 16.112C68.5229 16.336 68.6349 16.6133 68.6349 16.944C68.6349 17.2747 68.5229 17.552 68.2989 17.776C68.0749 18 67.8029 18.112 67.4829 18.112Z" fill="#6C7275"/>
</svg>
